<svg width="1438" height="215" viewBox="0 0 1438 215" fill="none" xmlns="http://www.w3.org/2000/svg">
<path d="M162.258 0C137.476 0 114.089 9.58378 96.52 26.9039C60.3347 62.8142 60.3347 121.356 96.52 157.266C114.089 174.702 137.359 184.17 162.258 184.17C187.158 184.17 210.428 174.586 227.881 157.266C245.333 139.946 254.99 116.737 254.99 92.1428C254.99 67.5483 245.333 44.3394 227.881 26.9039C210.428 9.46831 187.158 0 162.258 0ZM249.871 97.1079C248.707 116.853 241.028 135.443 227.764 150.107V119.047L249.871 97.1079ZM227.764 65.239V34.1783C241.028 48.8426 248.707 67.4329 249.871 87.1777L227.764 65.239ZM227.764 94.6831H245.217L227.764 112.003V94.6831ZM227.764 89.6026V72.2825L245.217 89.6026H227.764ZM159.699 174.355L142.246 157.035H159.699V174.355ZM101.872 35.6794L125.608 59.0038C117.812 67.4329 113.391 78.2868 112.809 89.718H101.872V35.6794ZM101.872 94.4522L112.925 94.2213C113.507 105.653 117.929 116.506 125.724 124.936L101.872 148.375V94.4522ZM128.982 55.5397L105.479 31.9844H159.815V42.8383C148.413 43.4157 137.592 47.8034 128.982 55.5397ZM103.85 26.9039C118.627 13.7406 137.359 6.11976 157.255 4.96509L135.149 26.9039H103.85ZM105.479 151.839L128.982 128.169C137.476 135.905 148.413 140.293 159.931 140.87V151.839H105.479ZM142.246 26.9039L159.699 9.58378V26.9039H142.246ZM157.139 178.859C137.243 177.704 118.51 170.083 103.734 156.92H135.032L157.139 178.859ZM130.495 60.3894C147.947 43.0693 176.453 43.0693 193.906 60.3894C211.359 77.7094 211.359 105.999 193.906 123.319C176.453 140.639 147.947 140.639 130.495 123.319C113.042 105.999 113.042 77.7094 130.495 60.3894ZM220.667 26.9039H189.368L167.262 4.96509C187.158 6.11976 205.89 13.7406 220.667 26.9039ZM164.818 9.81471L182.271 27.1348H164.818V9.81471ZM222.645 94.4522V148.375L198.793 124.936C206.588 116.506 211.01 105.653 211.591 94.2213L222.645 94.4522ZM222.645 89.4871H211.591C211.01 78.1713 206.588 67.3174 198.793 58.8883L222.645 35.5639V89.6026V89.4871ZM164.702 151.955V140.985C176.104 140.408 186.925 136.02 195.419 128.284L219.038 151.955H164.702ZM220.667 157.035C205.89 170.199 187.158 177.82 167.262 178.974L189.368 157.035H220.667ZM219.038 32.0999L195.535 55.6552C187.041 47.9189 176.104 43.5311 164.585 42.9538V32.0999H219.038ZM182.155 157.035L164.702 174.355V157.035H182.155ZM96.7527 118.931V149.992C83.4886 135.328 75.8094 116.737 74.6459 96.9925L96.7527 118.931ZM96.7527 94.5677V111.888L79.3 94.5677H96.7527ZM96.7527 72.2825V89.6026H79.3L96.7527 72.2825ZM74.6459 87.0623C75.8094 67.3174 83.4886 48.7272 96.7527 34.0628V65.1235L74.6459 87.0623Z" fill="#014762"/>
<path d="M28.5708 179.321C41.0204 177.82 39.9732 176.549 39.9732 158.19V29.906C39.9732 9.23737 47.8851 7.0435 58.9385 5.54243H0.646484C12.0489 7.0435 19.6117 9.35284 19.6117 29.906V157.151C19.6117 177.82 12.0489 180.013 0.646484 181.514H35.0865C78.4855 182.323 108.155 215 145.387 215C160.862 215 177.85 209.227 197.862 193.061C177.268 202.068 160.862 205.416 146.435 205.416C105.595 205.416 80.8125 179.205 28.5708 179.205V179.321Z" fill="#014762"/>
<path d="M469.077 5.42696H360.288C377.508 6.92803 387.398 8.4291 374.949 47.457L342.021 152.417L305.487 33.1391C300.135 15.2417 305.487 6.92803 322.242 5.42696H249.987C269.534 7.3899 276.399 10.1611 283.147 31.2916L332.364 184.979H333.644L376.461 49.6509C387.98 13.2787 393.099 7.50537 412.065 5.54243C422.653 7.0435 429.634 9.93018 429.634 29.6751V157.151C429.634 177.82 422.071 180.013 410.668 181.514H468.961C457.791 180.013 449.995 177.704 449.995 157.151V29.906C449.995 9.23737 457.907 7.0435 468.961 5.54243L469.077 5.42696Z" fill="#014762"/>
<path d="M498.514 29.3287C498.514 12.9323 514.221 4.15682 531.674 4.15682C553.199 4.15682 577.284 17.551 577.284 47.2261L580.89 15.4726C570.768 6.6971 554.013 1.38561 537.259 1.38561C512.359 1.38561 487.809 13.1633 487.809 41.6837C487.809 92.9511 583.334 91.7965 583.334 145.373C583.334 169.506 563.321 182.669 541.796 182.669C515.966 182.669 487.809 164.079 487.809 122.511L478.152 160.961C493.394 176.78 516.199 184.863 537.491 184.863C568.441 184.863 596.831 168.236 596.831 133.827C596.831 77.0166 498.514 72.9753 498.514 29.4441V29.3287Z" fill="#014762"/>
<path d="M725.399 154.842L676.531 1.96294H675.251L632.434 137.291C620.566 175.048 615.447 179.782 594.62 181.514H648.607C631.387 180.013 621.497 178.743 633.947 139.484L638.484 124.358H694.566L703.408 153.571C708.993 171.469 703.408 180.013 686.654 181.514H758.908C739.128 179.552 732.264 176.78 725.399 154.842ZM639.182 122.395L666.874 34.6402L693.751 122.395H639.182Z" fill="#014762"/>
<path d="M1293.77 5.42696H1237C1248.4 6.92803 1255.96 8.89097 1255.96 29.5596V106.576C1255.96 127.245 1248.4 129.439 1237 130.709H1293.77C1282.37 129.439 1274.81 126.898 1274.81 106.345V29.906C1274.81 9.23737 1282.37 7.0435 1293.77 5.54243V5.42696Z" fill="#014762"/>
<path d="M1260.38 183.131C1242.35 183.131 1220.12 178.397 1193.25 178.397V29.906C1193.25 9.23737 1200.81 7.0435 1212.21 5.54243H1153.92C1165.09 7.0435 1172.65 9.35284 1172.65 29.906V157.151C1172.65 177.589 1165.21 180.013 1154.27 181.514C1134.84 179.552 1127.97 176.665 1121.23 154.842L1072.24 1.96294H1070.96L1028.14 137.291C1016.39 174.586 1011.27 179.667 991.145 181.514C979.975 180.013 972.645 177.473 972.645 157.151V29.906C972.645 9.23737 980.208 7.0435 991.611 5.54243H957.869L914.819 154.033L864.904 5.42696H831.744C842.914 6.92803 850.709 9.23738 850.709 29.7905V144.565C850.709 165.234 842.797 180.013 831.744 181.514H871.769C860.599 180.013 852.803 165.118 852.803 144.565V29.0977L906.092 184.632H908.07L952.4 31.869V157.151C952.4 177.82 944.488 180.013 933.435 181.514H1044.43C1027.21 180.013 1017.32 178.743 1029.77 139.484L1034.31 124.358H1090.39L1099.24 153.571C1104.82 171.469 1099.24 180.013 1082.48 181.514H1189.99C1218.38 181.514 1240.95 197.333 1260.5 197.333C1271.9 197.333 1282.61 191.791 1292.5 173.894L1291.45 173.085C1283.07 180.591 1272.72 182.9 1260.5 182.9L1260.38 183.131ZM1035.01 122.511L1062.7 34.7556L1089.58 122.511H1035.01Z" fill="#014762"/>
<path d="M1397.21 5.42696C1408.38 6.92803 1416.18 21.8233 1416.18 42.3765V140.293L1338.92 5.42696H1304.48C1317.39 9.46831 1323.44 18.7057 1323.44 39.3743V144.565C1323.44 165.234 1315.88 180.013 1304.48 181.514H1344.5C1333.33 180.013 1325.77 165.118 1325.77 144.565V26.0956L1416.06 184.863H1418.39V42.3765C1418.39 21.7078 1426.3 6.92803 1437.35 5.42696H1397.21Z" fill="#014762"/>
</svg>
