<svg width="930" height="1056" viewBox="0 0 930 1056" fill="none" xmlns="http://www.w3.org/2000/svg">
<path d="M-3978.39 -2632.45C-3978.39 -2632.45 -4028.09 -2642.02 -4036.15 -2674.27C-4044.21 -2706.34 -4028.09 -2735.23 -3991.15 -2756.06C-3954.21 -2776.88 -3959.08 -2794.52 -3952.7 -2808.96C-3946.32 -2823.4 -3939.94 -2797.71 -3925.5 -2776.88C-3911.06 -2756.06 -3887.05 -2757.57 -3874.12 -2767.31C-3861.36 -2776.88 -3866.06 -2799.39 -3825.93 -2801.07C-3785.8 -2802.75 -3780.93 -2812.32 -3764.98 -2826.76C-3748.86 -2841.21 -3742.48 -2850.78 -3724.85 -2846.08C-3707.22 -2841.21 -3683.04 -2815.51 -3654.16 -2812.32C-3625.28 -2809.13 -3614.03 -2810.64 -3604.46 -2804.26C-3604.46 -2804.26 -3615.71 -2833.14 -3594.89 -2841.21C-3574.07 -2849.27 -3556.44 -2844.4 -3556.44 -2844.4L-3543.68 -2862.87H-3536.46C-3536.46 -2862.87 -3538.14 -2896.63 -3531.59 -2901.33C-3525.21 -2906.2 -3484.24 -2931.9 -3484.24 -2931.9C-3484.24 -2931.9 -3475.34 -2938.28 -3472.99 -2954.4C-3470.64 -2970.52 -3509.09 -2989.67 -3509.09 -3004.11C-3509.09 -3018.56 -3490.62 -3028.97 -3479.37 -3033.84C-3468.12 -3038.71 -3473.83 -3031.49 -3460.9 -3037.87C-3448.14 -3044.25 -3436.05 -3061.22 -3431.18 -3069.11C-3426.31 -3077.17 -3405.49 -3064.24 -3403.98 -3077.17C-3402.3 -3089.93 -3424.8 -3081.2 -3423.96 -3092.45C-3423.12 -3103.71 -3415.9 -3112.44 -3406.33 -3117.31C-3396.76 -3122.18 -3393.57 -3142.17 -3375.1 -3136.62C-3356.63 -3131.08 -3343.87 -3130.24 -3341.35 -3105.39C-3339 -3080.53 -3348.57 -3057.18 -3346.9 -3045.93C-3345.22 -3034.68 -3357.31 -3035.52 -3358.14 -3027.46C-3358.98 -3019.4 -3328.43 -2980.94 -3320.37 -2971.2C-3312.31 -2961.62 -3276.21 -2918.29 -3276.21 -2918.29C-3276.21 -2918.29 -3266.64 -2924.67 -3256.9 -2915.94C-3247.16 -2907.21 -3236.08 -2911.91 -3216.77 -2911.07C-3197.46 -2910.23 -3175.8 -2906.2 -3175.8 -2891.09C-3175.8 -2875.97 -3193.43 -2870.26 -3193.43 -2860.52C-3193.43 -2850.78 -3189.4 -2841.21 -3179.83 -2834.82C-3170.26 -2828.44 -3159.85 -2832.47 -3156.49 -2821.22C-3153.3 -2809.97 -3157.33 -2790.65 -3149.27 -2786.62C-3141.21 -2782.59 -3133.15 -2777.05 -3133.15 -2767.31C-3133.15 -2757.57 -3131.47 -2746.48 -3118.71 -2743.96C-3105.95 -2741.61 -3113.84 -2761.6 -3099.4 -2770.5C-3084.96 -2779.4 -3076.9 -2782.59 -3089.83 -2793C-3102.59 -2803.42 -3115.52 -2801.91 -3120.39 -2815.51C-3125.26 -2829.11 -3130.8 -2838.85 -3125.26 -2849.27C-3119.72 -2859.68 -3110.82 -2867.74 -3110.82 -2874.96C-3110.82 -2882.18 -3104.44 -2887.73 -3094.7 -2892.6C-3085.13 -2897.47 -3082.61 -2908.72 -3081.1 -2917.45C-3079.42 -2926.35 -3059.44 -2942.31 -3046.51 -2955.91C-3033.75 -2969.52 -3027.2 -2981.61 -3018.47 -2995.21C-3009.57 -3008.82 -3010.41 -3010.5 -3004.03 -3021.75C-2997.65 -3033 -2994.46 -3041.06 -2994.46 -3041.06C-2994.46 -3041.06 -3004.03 -3048.28 -3008.06 -3063.57C-3012.09 -3078.85 -3004.87 -3096.48 -3010.41 -3106.9C-3015.95 -3117.31 -3029.72 -3118.99 -3016.79 -3129.4C-3003.86 -3139.81 -3004.7 -3153.42 -2995.97 -3163.16C-2987.07 -3172.73 -2969.44 -3173.57 -2959.03 -3164.84C-2948.62 -3156.11 -2955 -3137.63 -2944.59 -3137.63C-2934.18 -3137.63 -2935.69 -3153.75 -2926.96 -3153.75C-2918.23 -3153.75 -2914.87 -3142.5 -2918.06 -3125.71C-2921.25 -3108.91 -2927.63 -3081.54 -2910 -3064.74C-2892.37 -3047.95 -2890.02 -3038.21 -2860.98 -3035.02C-2832.1 -3031.82 -2828.07 -3053.49 -2810.44 -3057.52C-2792.81 -3061.55 -2790.46 -3053.49 -2775.18 -3063.06C-2759.9 -3072.64 -2729.51 -3085.57 -2711.04 -3076.67C-2692.57 -3067.77 -2699.79 -3051.81 -2693.41 -3039.72C-2687.03 -3027.63 -2680.65 -3024.43 -2669.4 -3018.05C-2658.15 -3011.67 -2664.53 -3003.61 -2658.15 -2994.71C-2651.77 -2985.81 -2637.33 -2987.49 -2626.92 -2995.55C-2616.51 -3003.61 -2628.59 -3022.08 -2634.97 -3030.15C-2641.36 -3038.21 -2650.25 -3042.91 -2648.58 -3057.35C-2646.9 -3071.8 -2626.08 -3080.7 -2625.24 -3091.11C-2624.4 -3101.52 -2648.58 -3100.01 -2658.99 -3102.36C-2669.4 -3104.71 -2680.65 -3124.87 -2679.81 -3141.66C-2678.97 -3158.46 -2667.72 -3179.45 -2665.37 -3193.89C-2663.02 -3208.34 -2653.28 -3210.02 -2642.03 -3216.4C-2630.78 -3222.78 -2609.12 -3243.61 -2591.49 -3235.71C-2573.86 -3227.65 -2567.48 -3192.38 -2558.58 -3189.19C-2549.68 -3186 -2537.76 -3196.41 -2530.54 -3192.38C-2523.32 -3188.35 -2502.5 -3176.26 -2495.28 -3185.16C-2488.06 -3194.06 -2480 -3210.02 -2489.74 -3220.43C-2499.47 -3230.84 -2525.84 -3223.62 -2529.03 -3232.52C-2532.22 -3241.42 -2529.87 -3254.19 -2535.41 -3261.41C-2540.95 -3268.63 -2532.22 -3275.01 -2525 -3283.91C-2517.78 -3292.81 -2523.32 -3315.99 -2518.62 -3331.27C-2513.75 -3346.56 -2508.21 -3340.17 -2505.02 -3356.13C-2501.83 -3372.25 -2493.77 -3387.37 -2476.98 -3384.18C-2460.18 -3380.99 -2458.51 -3360.16 -2448.1 -3361.67C-2437.69 -3363.18 -2443.23 -3379.31 -2430.47 -3381.66C-2417.7 -3384.01 -2405.62 -3376.79 -2390.34 -3369.57C-2375.06 -3362.34 -2382.28 -3355.12 -2373.55 -3343.87C-2364.65 -3332.62 -2351.89 -3325.4 -2342.99 -3325.4C-2334.09 -3325.4 -2328.55 -3319.85 -2316.46 -3316.49C-2304.37 -3313.3 -2303.7 -3326.91 -2293.96 -3326.91C-2284.22 -3326.91 -2290.77 -3316.49 -2275.49 -3316.49C-2260.21 -3316.49 -2252.99 -3318.17 -2247.45 -3334.97C-2241.91 -3351.76 -2237.88 -3381.49 -2228.14 -3385.52C-2218.57 -3389.55 -2226.46 -3420.79 -2204.8 -3430.53C-2183.14 -3440.27 -2204.8 -3450.52 -2180.79 -3451.36C-2156.78 -3452.19 -2147.88 -3451.36 -2127.06 -3447.32C-2106.24 -3443.29 -2104.56 -3447.32 -2098.18 -3452.87C-2091.8 -3458.41 -2081.39 -3458.41 -2073.33 -3460.09C-2065.27 -3461.77 -2073.33 -3478.56 -2060.57 -3480.07C-2047.81 -3481.75 -2045.29 -3475.2 -2038.91 -3470.5C-2032.53 -3465.63 -2026.82 -3485.78 -2009.19 -3484.1C-1991.56 -3482.43 -1996.43 -3472.01 -1987.53 -3469.66C-1978.63 -3467.31 -1976.28 -3465.63 -1967.55 -3459.25C-1958.65 -3452.87 -1948.24 -3443.13 -1932.96 -3451.19C-1917.68 -3459.25 -1907.27 -3462.44 -1898.54 -3462.44C-1889.81 -3462.44 -1881.75 -3482.43 -1861.6 -3493.01C-1841.45 -3503.59 -1852.03 -3504.26 -1823.82 -3505.1C-1795.61 -3505.94 -1784.53 -3512.32 -1774.12 -3521.89C-1763.71 -3531.47 -1749.27 -3544.4 -1738.02 -3529.11C-1726.77 -3513.83 -1722.74 -3496.2 -1734.83 -3491.33C-1746.92 -3486.46 -1771.77 -3479.23 -1775.8 -3472.85C-1779.83 -3466.47 -1785.37 -3453.54 -1778.15 -3442.29C-1770.93 -3431.03 -1758.84 -3413.4 -1756.49 -3398.96C-1754.14 -3384.51 -1730.8 -3398.12 -1726.77 -3384.51C-1722.74 -3370.91 -1727.61 -3341.18 -1716.36 -3333.96C-1705.11 -3326.74 -1687.48 -3309.94 -1673.88 -3294.66C-1660.28 -3279.38 -1645.84 -3266.61 -1645.84 -3266.61C-1645.84 -3266.61 -1612.09 -3261.07 -1605.71 -3255.36C-1599.33 -3249.82 -1596.81 -3260.9 -1569.61 -3259.39C-1542.41 -3257.71 -1527.8 -3250.49 -1527.8 -3250.49C-1527.8 -3250.49 -1498.09 -3250.49 -1485.32 -3239.24C-1472.56 -3227.99 -1466.02 -3220.76 -1446.87 -3221.6C-1427.73 -3222.44 -1413.96 -3217.57 -1402.71 -3215.22C-1391.47 -3212.87 -1379.38 -3220.09 -1356.2 -3216.9C-1333.03 -3213.71 -1327.32 -3201.62 -1316.91 -3200.78C-1306.5 -3199.94 -1281.65 -3191.21 -1271.24 -3199.94C-1260.83 -3208.67 -1246.39 -3208.84 -1232.79 -3202.29C-1219.19 -3195.91 -1212.81 -3187.01 -1190.99 -3186.17C-1169.33 -3185.33 -1162.95 -3186.17 -1154.05 -3182.14C-1145.15 -3178.11 -1135.58 -3173.24 -1117.95 -3171.72C-1100.32 -3170.04 -1103.51 -3164.5 -1105.19 -3149.22C-1106.86 -3133.94 -1120.47 -3131.58 -1127.69 -3124.36C-1134.91 -3117.14 -1156.56 -3122.01 -1165.46 -3119.49C-1174.36 -3117.14 -1183.09 -3105.05 -1183.93 -3098.67C-1184.77 -3092.29 -1201.56 -3077.84 -1212.81 -3072.97C-1224.06 -3068.1 -1236.15 -3062.56 -1236.82 -3052.99C-1237.66 -3043.41 -1235.98 -3042.57 -1250.42 -3035.35C-1264.86 -3028.13 -1264.86 -3024.1 -1255.97 -3015.37C-1247.07 -3006.63 -1239.85 -3004.95 -1239.17 -2992.86C-1238.33 -2980.77 -1229.6 -2978.42 -1215.16 -2980.77C-1200.72 -2983.12 -1194.34 -2990.34 -1185.44 -2986.31C-1176.55 -2982.28 -1187.12 -2976.74 -1173.36 -2969.52C-1159.59 -2962.29 -1135.58 -2965.49 -1129.2 -2963.97C-1122.82 -2962.29 -1137.26 -2947.85 -1138.1 -2937.44C-1138.93 -2927.03 -1150.86 -2918.96 -1164.62 -2910.9C-1178.22 -2902.84 -1195.18 -2892.43 -1195.85 -2880.34C-1196.69 -2868.24 -1199.88 -2861.02 -1203.91 -2852.29C-1207.94 -2843.39 -1211.13 -2828.94 -1197.53 -2825.75C-1183.93 -2822.56 -1171.84 -2835.33 -1162.27 -2838.52C-1152.7 -2841.71 -1130.2 -2840.87 -1126.17 -2828.11C-1122.14 -2815.34 -1155.89 -2800.9 -1157.4 -2787.13C-1158.92 -2773.35 -1160.59 -2760.59 -1160.59 -2752.53C-1160.59 -2744.47 -1171 -2748.5 -1171 -2741.28C-1171 -2734.06 -1163.78 -2729.18 -1148.51 -2728.51C-1133.23 -2727.67 -1104.35 -2722.97 -1100.32 -2713.23C-1096.29 -2703.66 -1091.42 -2694.76 -1087.56 -2689.89C-1083.53 -2685.01 -1061.03 -2673.76 -1059.52 -2671.41C-1057.84 -2669.06 -1047.43 -2648.07 -1045.92 -2642.52C-1044.24 -2636.98 -1036.34 -2631.27 -1031.48 -2626.4C-1026.61 -2621.53 -1020.23 -2616.83 -1028.28 -2603.9C-1036.34 -2591.13 -1050.78 -2577.36 -1066.06 -2583.91C-1081.34 -2590.29 -1099.81 -2600.03 -1106.19 -2594.32C-1112.57 -2588.78 -1118.28 -2601.55 -1118.95 -2605.58C-1119.79 -2609.61 -1107.7 -2614.48 -1100.48 -2624.05C-1093.26 -2633.62 -1093.26 -2637.65 -1103.67 -2648.07C-1114.08 -2658.48 -1127.69 -2671.41 -1128.52 -2674.6C-1129.36 -2677.79 -1142.12 -2697.11 -1154.21 -2701.14C-1166.3 -2705.17 -1190.31 -2706.01 -1190.31 -2706.01C-1190.31 -2706.01 -1191.15 -2693.24 -1183.09 -2687.53C-1175.03 -2681.99 -1163.11 -2674.77 -1163.11 -2674.77C-1163.11 -2674.77 -1187.96 -2681.15 -1196.02 -2675.61C-1204.08 -2670.07 -1213.65 -2655.62 -1219.36 -2652.27C-1224.9 -2649.07 -1244.21 -2645.88 -1253.78 -2648.23C-1263.35 -2650.59 -1263.35 -2655.46 -1269.9 -2667.55C-1276.28 -2679.64 -1283.5 -2693.24 -1297.1 -2691.56C-1310.7 -2689.89 -1334.04 -2696.44 -1334.04 -2696.44C-1334.04 -2696.44 -1340.42 -2711.72 -1350.83 -2706.01C-1361.24 -2700.47 -1373.33 -2685.18 -1373.33 -2685.18C-1373.33 -2685.18 -1375.01 -2670.74 -1369.3 -2669.06C-1363.76 -2667.38 -1357.21 -2661.84 -1350.83 -2669.9C-1344.45 -2677.96 -1352.51 -2682.66 -1336.39 -2681.99C-1320.27 -2681.15 -1305.16 -2675.61 -1305.16 -2675.61C-1305.16 -2675.61 -1327.66 -2666.04 -1334.88 -2657.14C-1342.1 -2648.23 -1351.67 -2643.53 -1351.67 -2643.53L-1362.92 -2628.25C-1362.92 -2628.25 -1398.18 -2631.44 -1403.89 -2630.6C-1409.43 -2629.76 -1422.36 -2628.92 -1428.74 -2621.7C-1435.12 -2614.48 -1445.53 -2600.03 -1452.08 -2598.35C-1458.46 -2596.67 -1532.67 -2549.15 -1556.18 -2543.77C-1579.69 -2538.4 -1597.99 -2532.02 -1597.99 -2532.02C-1597.99 -2532.02 -1626.87 -2513.88 -1630.06 -2511.69C-1633.25 -2509.51 -1664.31 -2500.95 -1664.31 -2500.95L-1692.18 -2463.49L-1712.5 -2440.99C-1712.5 -2440.99 -1716.7 -2459.13 -1710.32 -2473.07C-1703.94 -2487.01 -1708.14 -2494.4 -1711.33 -2496.58C-1714.52 -2498.76 -1751.96 -2475.25 -1751.96 -2475.25C-1751.96 -2475.25 -1772.28 -2455.94 -1768.08 -2440.99C-1763.88 -2426.04 -1768.08 -2416.3 -1759.51 -2411.09C-1750.95 -2405.72 -1742.39 -2406.9 -1741.38 -2394.97C-1740.37 -2383.21 -1756.32 -2369.28 -1745.58 -2359.7C-1734.83 -2350.13 -1712.33 -2372.47 -1712.33 -2372.47L-1693.02 -2347.78C-1693.02 -2347.78 -1709.14 -2339.21 -1702.59 -2323.09C-1696.21 -2306.97 -1670.52 -2272.87 -1670.52 -2272.87C-1670.52 -2272.87 -1672.71 -2268.68 -1660.95 -2263.3C-1649.2 -2257.93 -1633.08 -2236.6 -1628.88 -2234.41C-1624.69 -2232.23 -1610.75 -2223.67 -1610.75 -2223.67L-1624.69 -2198.98C-1624.69 -2198.98 -1626.87 -2195.79 -1628.88 -2167.91C-1631.07 -2140.03 -1641.64 -2128.27 -1641.64 -2128.27L-1653.4 -2132.47L-1658.77 -2118.53L-1679.09 -2112.15L-1693.02 -2133.48L-1714.35 -2147.42L-1739.03 -2109.97C-1739.03 -2109.97 -1727.28 -2089.64 -1728.28 -2076.71C-1729.29 -2063.95 -1728.28 -2038.25 -1728.28 -2038.25C-1728.28 -2038.25 -1716.53 -2015.75 -1717.54 -2011.55C-1718.55 -2007.35 -1716.53 -2003.99 -1718.55 -1988.04C-1720.73 -1971.91 -1727.11 -1965.53 -1721.74 -1950.58C-1716.36 -1935.64 -1704.61 -1888.44 -1704.61 -1888.44C-1704.61 -1888.44 -1693.86 -1856.37 -1693.86 -1843.43C-1693.86 -1830.5 -1679.93 -1804.97 -1671.36 -1793.22C-1662.8 -1781.46 -1653.23 -1752.57 -1653.23 -1740.82C-1653.23 -1729.06 -1601.85 -1683.05 -1586.91 -1675.49C-1571.96 -1667.93 -1551.65 -1645.59 -1551.65 -1645.59C-1551.65 -1645.59 -1537.71 -1631.65 -1524.95 -1626.28C-1512.19 -1620.9 -1505.64 -1619.9 -1489.69 -1619.9C-1473.74 -1619.9 -1426.56 -1580.26 -1420.18 -1570.69C-1413.8 -1561.12 -1345.29 -1508.55 -1331.35 -1492.59C-1317.42 -1476.47 -1278.97 -1447.58 -1238.33 -1434.82C-1197.7 -1422.06 -1189.14 -1420.88 -1179.57 -1408.12C-1170 -1395.35 -1147.5 -1371.67 -1144.31 -1341.78C-1141.12 -1311.88 -1130.37 -1280.81 -1119.63 -1266.87C-1108.88 -1252.93 -1070.43 -1188.78 -1068.25 -1162.07C-1066.06 -1135.37 -1058.68 -1065.67 -1044.74 -1033.6C-1030.8 -1001.52 -1008.3 -930.812 -983.79 -879.42C-959.108 -828.029 -861.89 -713.489 -827.638 -704.924C-793.385 -696.358 -790.195 -634.218 -756.949 -620.447C-723.704 -606.507 -681.056 -591.56 -676.69 -569.055C-672.493 -546.55 -654.191 -519.847 -645.628 -517.663C-637.065 -515.48 -608.185 -516.656 -570.742 -490.96C-533.299 -465.264 -518.355 -463.081 -505.427 -445.95C-492.666 -428.819 -438.096 -435.201 -422.985 -433.186C-408.041 -431.003 -414.422 -423.613 -387.725 -422.438C-361.028 -421.43 -327.782 -425.628 -312.839 -435.201C-297.895 -444.774 -274.388 -436.209 -238.96 -436.209C-203.532 -436.209 -189.764 -443.767 -173.645 -451.156C-157.526 -458.714 -165.082 -467.279 -134.019 -462.913C-102.957 -458.714 -70.8862 -427.644 -70.8862 -427.644C-70.8862 -427.644 -61.3159 -399.765 -53.7603 -394.391C-46.2043 -389.016 -31.2607 -376.252 -42.0066 -363.32C-52.7524 -350.388 -89.0203 -328.052 -94.3933 -325.868C-99.7664 -323.685 -156.518 -286.233 -170.287 -275.484C-184.223 -264.736 -185.23 -241.223 -182.04 -230.474C-178.85 -219.726 -142.414 -163.128 -69.7112 -130.882C2.99219 -98.8044 202.129 7.17017 319.831 42.439C437.533 77.7078 452.476 172.933 540.291 198.629C628.105 224.325 634.486 245.654 634.486 245.654C634.486 245.654 666.556 237.089 689.055 254.219C711.555 271.35 724.315 311.993 741.442 331.307C758.568 350.621 835.637 402.012 879.46 466.168C923.284 530.324 915.896 558.203 924.459 563.577C933.022 568.952 929.832 581.715 914.889 609.595C899.945 637.474 886.009 663.169 887.016 690.88C888.023 718.76 882.818 754.029 858.136 754.029C833.454 754.029 837.82 732.699 822.876 726.149C807.933 719.768 752.188 710.026 720.118 672.575C688.048 635.123 715.92 586.922 699.801 564.417C683.683 541.912 668.739 534.522 666.556 518.4C664.373 502.277 668.738 481.955 629.113 477.757C589.487 473.558 543.48 479.94 510.403 477.757C477.158 475.573 439.715 446.686 417.384 431.739C394.884 416.792 370.37 413.601 371.377 402.852C372.385 392.104 384.138 392.104 384.138 388.913C384.138 385.722 367.012 352.468 326.379 355.659C285.746 358.85 194.741 470.199 177.614 522.598C160.488 574.998 126.235 566.432 123.044 586.754C119.854 607.075 145.544 648.894 133.791 671.231C122.037 693.736 56.7222 748.319 61.0874 766.457C65.2852 784.595 98.5303 777.206 98.5303 793.16C98.5303 809.115 72.8408 822.047 96.3477 830.613C119.854 839.178 179.797 828.429 210.859 860.507C241.922 892.585 299.682 927.854 322.181 942.969C344.68 957.916 361.807 952.542 358.617 969.672C355.427 986.803 339.308 987.811 335.11 1004.94C330.913 1022.07 332.927 1057.34 345.856 1069.1C358.617 1080.85 359.792 1095.8 349.046 1100.17C338.3 1104.37 329.737 1104.37 338.3 1119.48C346.863 1134.43 350.053 1135.6 350.053 1144.17C350.053 1152.73 355.427 1154.92 363.99 1162.31C372.553 1169.86 367.18 1184.81 364.997 1196.57C362.814 1208.32 375.743 1213.7 358.617 1223.27C341.49 1232.84 340.483 1245.78 331.92 1242.59C323.356 1239.39 314.793 1234.02 296.66 1234.02C278.526 1234.02 284.906 1220.08 265.597 1224.45C246.288 1228.81 213.21 1232.01 187.521 1250.14C161.831 1268.28 108.269 1297.17 106.254 1333.61C104.071 1370.06 131.944 1479.22 107.262 1513.48C82.5796 1547.74 18.4395 1590.57 15.249 1586.2C12.0591 1581.84 -27.5669 1621.47 -45.7004 1650.36C-63.8342 1679.25 -70.3828 1759.53 -105.643 1768.09C-140.903 1776.66 -186.909 1769.1 -204.036 1775.65C-221.162 1782.03 -271.366 1778.84 -285.302 1747.77C-299.238 1716.7 -287.485 1666.48 -290.675 1639.61C-293.865 1612.91 -306.794 1630.04 -294.873 1609.72C-283.119 1589.4 -249.874 1579.82 -249.874 1579.82C-249.874 1579.82 -191.107 1538 -186.741 1502.73C-182.544 1467.47 -174.988 1453.53 -170.622 1442.78C-166.425 1432.03 -194.129 1412.88 -204.875 1396.76C-215.621 1380.64 -208.065 1365.69 -189.932 1351.75C-171.798 1337.81 -126.799 1323.87 -114.038 1320.68C-101.277 1317.49 -111.855 1340 -85.1584 1337.81C-58.4614 1335.63 -48.7229 1271.47 -47.7156 1248.97C-46.708 1226.46 -88.3486 1195.39 -103.292 1163.31C-118.236 1131.24 -122.602 1100.17 -121.426 1053.14C-120.251 1006.12 -133.179 965.306 -167.432 915.09C-201.685 864.874 -231.572 811.298 -226.199 768.472C-220.826 725.646 -231.572 730.012 -232.58 705.324C-233.587 680.636 -263.642 645.367 -276.403 628.237C-289.164 611.106 -303.1 590.785 -325.599 599.35C-348.099 607.915 -358.845 645.367 -382.352 642.176C-405.858 638.985 -425.167 629.412 -448.674 602.541C-472.181 575.837 -489.308 548.966 -516.005 544.767C-542.702 540.568 -564.193 538.385 -564.193 538.385C-564.193 538.385 -558.821 530.828 -579.137 519.071C-599.454 507.315 -617.588 502.948 -617.588 502.948C-617.588 502.948 -618.595 484.81 -615.405 483.635C-612.215 482.627 -599.286 483.635 -599.286 483.635C-599.286 483.635 -595.088 458.946 -587.532 447.19C-579.977 435.434 -570.406 438.625 -570.406 424.685C-570.406 410.746 -582.159 361.537 -603.651 330.467C-624.975 299.397 -633.539 276.892 -659.228 272.694C-684.918 268.495 -688.108 271.686 -688.108 271.686L-685.925 283.442C-685.925 283.442 -703.052 278.068 -717.995 287.641C-732.939 297.214 -740.495 304.771 -757.621 297.214C-774.747 289.656 -780.12 285.458 -788.683 295.031C-797.247 304.604 -825.119 314.344 -825.119 314.344C-825.119 314.344 -856.181 320.726 -857.189 307.962C-858.196 295.198 -832.507 289.824 -820.753 278.068C-809 266.312 -806.817 256.739 -807.993 244.814C-809 233.058 -849.801 202.996 -857.189 186.033C-864.745 168.903 -897.822 166.719 -900.005 171.086C-902.188 175.284 -919.314 197.79 -919.314 197.79L-970.19 202.66L-979.76 175.453C-979.76 175.453 -962.13 164.2 -974.891 138.504C-987.652 112.808 -1015.02 40.5913 -1045.58 11.7046C-1076.14 -17.1821 -1112.91 -52.4512 -1112.91 -52.4512C-1112.91 -52.4512 -1159.42 -74.9561 -1169.16 -58.8333C-1178.73 -42.7102 -1183.6 -34.8169 -1198.04 -41.1987C-1212.48 -47.5808 -1287.87 -100.652 -1326.49 -79.6584C-1365.1 -58.665 -1358.56 -37.8398 -1366.61 -37.8398C-1374.67 -37.8398 -1403.55 -44.2217 -1403.55 -44.2217C-1403.55 -44.2217 -1411.61 -132.562 -1475.75 -142.135C-1539.89 -151.708 -1570.45 -174.212 -1580.02 -174.212C-1589.59 -174.212 -1618.47 -248.109 -1657.09 -276.996C-1695.54 -305.883 -1727.78 -322.006 -1743.73 -329.899C-1759.68 -337.792 -1737.35 -386.161 -1783.86 -431.003C-1830.37 -476.012 -1873.69 -500.029 -1923.56 -504.899C-1973.26 -509.77 -1929.94 -586.689 -1970.07 -618.935C-2010.2 -651.013 -2053.52 -702.405 -2088.78 -710.466C-2124.04 -718.527 -2157.79 -744.223 -2169.04 -728.1C-2180.29 -711.978 -2181.8 -697.534 -2181.8 -697.534C-2181.8 -697.534 -2205.81 -679.9 -2215.55 -700.725C-2225.28 -721.551 -2246.11 -735.994 -2231.67 -744.055C-2217.23 -752.117 -2204.46 -729.612 -2197.92 -742.376C-2191.54 -755.14 -2183.98 -814.089 -2244.93 -852.549C-2305.88 -891.009 -2294.13 -918.888 -2304.87 -925.27C-2315.62 -931.652 -2344.5 -928.461 -2358.43 -933.835C-2372.37 -939.209 -2357.43 -955.164 -2364.81 -983.043C-2372.37 -1010.92 -2389.5 -1050.39 -2421.57 -1037.63C-2453.64 -1024.86 -2449.44 -996.983 -2463.38 -1007.73C-2477.31 -1018.48 -2494.44 -1011.93 -2485.87 -1039.81C-2477.31 -1067.69 -2443.06 -1125.46 -2460.18 -1170.3C-2477.31 -1215.31 -2476.3 -1218.5 -2490.07 -1235.64C-2504.01 -1252.77 -2487.89 -1269.9 -2510.39 -1294.42C-2532.89 -1319.1 -2548.84 -1341.44 -2558.58 -1372.51C-2568.15 -1403.58 -2570.33 -1610.16 -2622.72 -1630.48C-2675.1 -1650.8 -2654.79 -1675.49 -2689.04 -1677.5C-2723.29 -1679.69 -2725.48 -1683.88 -2747.81 -1683.88C-2770.14 -1683.88 -2832.26 -1720.33 -2899.76 -1772.73C-2967.09 -1825.13 -2999.33 -1847.63 -3008.9 -1847.63C-3018.47 -1847.63 -2996.14 -1822.94 -3022.84 -1827.31C-3049.53 -1831.51 -3029.22 -1835.88 -3063.47 -1855.19C-3097.72 -1874.5 -3105.28 -1865.94 -3130.8 -1877.7C-3156.49 -1889.45 -3171.43 -1912.96 -3210.05 -1898.02C-3248.5 -1883.07 -3304.25 -1848.81 -3325.57 -1833.86C-3346.9 -1818.91 -3339.51 -1816.73 -3349.08 -1795.4C-3358.65 -1774.07 -3376.95 -1743 -3401.46 -1735.44C-3426.15 -1727.89 -3429.34 -1680.86 -3447.47 -1663.73C-3465.6 -1646.6 -3456.03 -1644.42 -3466.78 -1621.91C-3477.53 -1599.41 -3486.09 -1583.45 -3510.6 -1579.09C-3535.29 -1574.89 -3558.79 -1551.21 -3593.04 -1540.63C-3627.3 -1529.88 -3626.29 -1536.43 -3650.8 -1529.88C-3675.49 -1523.5 -3663.57 -1497.8 -3697.82 -1508.55C-3732.07 -1519.3 -3757.76 -1546 -3758.77 -1553.56C-3759.78 -1561.12 -3771.53 -1587.82 -3744.83 -1601.76C-3718.13 -1615.7 -3701.01 -1641.39 -3695.64 -1646.77C-3690.26 -1652.14 -3658.19 -1686.4 -3659.2 -1699.17C-3660.21 -1711.93 -3677.33 -1709.92 -3682.71 -1727.05C-3688.08 -1744.18 -3664.57 -1752.74 -3698.83 -1751.74C-3733.08 -1750.73 -3739.46 -1740.99 -3749.03 -1731.41C-3758.6 -1721.84 -3780.09 -1720.67 -3788.66 -1721.84C-3797.22 -1722.85 -3807.96 -1726.04 -3828.28 -1727.22C-3848.6 -1728.22 -3870.09 -1743.34 -3886.04 -1755.09C-3902.16 -1766.85 -3936.24 -1766.85 -3936.24 -1766.85C-3936.24 -1766.85 -3956.56 -1762.65 -3961.93 -1783.98C-3967.31 -1805.31 -3978.05 -1824.62 -3978.05 -1824.62L-4017.68 -1865.27L-4016.67 -1900.54L-3985.61 -1899.53L-3997.36 -1925.22L-4022.04 -1926.23C-4022.04 -1926.23 -4030.61 -1970.07 -4023.05 -1974.43C-4015.5 -1978.63 -3994.17 -1988.37 -3994.17 -1988.37L-3983.43 -2019.44C-3983.43 -2019.44 -3997.36 -2047.32 -3979.23 -2049.34C-3961.09 -2051.52 -3952.53 -2048.33 -3940.78 -2051.52C-3929.02 -2054.71 -3952.53 -2074.02 -3952.53 -2074.02C-3952.53 -2074.02 -3967.47 -2095.35 -3964.28 -2103.92C-3961.09 -2112.48 -3949.34 -2143.55 -3964.28 -2148.93C-3979.23 -2154.3 -3994.17 -2153.13 -3994.17 -2153.13C-3994.17 -2153.13 -4019.86 -2139.19 -4038 -2157.33C-4056.13 -2175.46 -4071.24 -2187.22 -4073.26 -2201.16C-4075.44 -2215.1 -4073.26 -2238.61 -4073.26 -2238.61L-4121.44 -2261.12L-4129 -2296.39C-4129 -2296.39 -4116.24 -2326.28 -4103.31 -2329.64C-4090.38 -2333 -4049.75 -2341.4 -4049.75 -2341.4L-4018.69 -2314.69C-4018.69 -2314.69 -4002.57 -2349.96 -3981.24 -2368.27C-3959.92 -2386.41 -3936.24 -2382.21 -3925.67 -2383.21C-3914.92 -2384.22 -3907.53 -2408.91 -3907.53 -2408.91L-3922.48 -2423.86L-3927.85 -2445.19L-3906.52 -2465.51L-3886.21 -2471.89L-3916.1 -2501.78L-3931.04 -2515.72L-3926.84 -2523.28C-3926.84 -2523.28 -3972.85 -2560.73 -3971.84 -2570.31C-3970.83 -2579.88 -3977.72 -2631.78 -3977.72 -2631.78L-3978.39 -2632.45Z" fill="#BDA078"/>
</svg>
