<svg width="1279" height="1279" viewBox="0 0 1279 1279" fill="none" xmlns="http://www.w3.org/2000/svg">
<path opacity="0.3" d="M1039.31 1138.31C905.953 1245.19 739.219 1293.75 569.838 1275.07C219.591 1236.45 -33.9369 920.087 4.69168 569.85C23.3526 400.449 107.082 248.311 240.444 141.439C373.805 34.566 540.521 -13.9967 709.91 4.68906C795.515 14.1186 876.766 40.1132 951.405 81.9113C1023.48 122.283 1086.38 175.62 1138.32 240.437C1190.26 305.255 1228.62 378.259 1252.31 457.401C1276.85 539.364 1284.51 624.317 1275.07 709.93C1256.39 879.329 1172.67 1031.46 1039.32 1138.32L1039.31 1138.31ZM1041.86 1132.74L1041.63 1132.72L1045.37 1129.62C1170.61 1025.94 1250.74 880.262 1270.98 719.411L1271.5 715.285L1271.63 715.445L1272.11 710.738L1272.22 709.579L1272.95 703.746L1272.76 703.899L1273.16 699.759C1288.44 538.372 1241.98 378.726 1142.35 250.255L1139.31 246.341L1139.5 246.353L1136.21 242.356L1132.73 237.862L1132.69 238.105L1129.6 234.368C1025.94 109.134 880.262 29.0009 719.395 8.7465L715.279 8.21942L715.429 8.0988L710.722 7.61638L709.754 7.5187L703.73 6.77218L703.891 6.97301L699.751 6.58057C538.361 -8.68748 378.725 37.7632 250.251 137.421L246.417 140.395L246.439 140.196L242.887 143.109L242.194 143.664L237.888 147.016L238.123 147.041L234.386 150.135C109.131 253.81 29.0049 399.498 8.76938 560.349L8.2503 564.475L8.12154 564.315L7.63915 569.022L7.5176 570.29L6.78486 576.022L6.98569 575.861L6.59525 579.983C-8.70415 741.397 37.7535 901.042 137.403 1029.5L140.296 1033.24L140.078 1033.21L143.088 1036.89L143.643 1037.58L147.083 1042L147.111 1041.74L150.125 1045.38C253.801 1170.62 399.478 1250.75 560.338 1270.99L564.464 1271.51L564.303 1271.64L569.01 1272.12L570.17 1272.23L576.002 1272.97L575.841 1272.77L579.982 1273.16C741.369 1288.45 901.015 1241.99 1029.48 1142.34L1033.32 1139.36L1033.3 1139.55L1036.85 1136.64L1037.53 1136.1L1041.85 1132.73L1041.86 1132.74ZM774.532 1103.17L570.78 1266.45L407.499 1062.7L147.965 1034.08L176.583 774.55L13.3018 570.799L217.054 407.517L245.672 147.984L505.206 176.6L708.959 13.3172L872.24 217.068L1131.77 245.684L1103.15 505.226L1266.43 708.977L1062.67 872.259L1034.06 1131.79L774.522 1103.18L774.532 1103.17ZM1031.84 1126.81L1059.63 874.697L919.673 986.857L1031.83 1126.81L1031.84 1126.81ZM1029.67 1128.53L917.532 988.589L777.593 1100.73L1029.67 1128.53ZM1044.36 692.2C1031.17 794.39 980.154 887.071 900.738 953.187L895.91 957.204L917.959 984.718L1261.05 709.775L1045.18 685.974L1044.37 692.21L1044.36 692.2ZM915.792 986.438L893.743 958.924L888.77 962.761C806.95 1025.86 705.399 1055.44 602.799 1046.06L596.536 1045.49L572.733 1261.36L915.792 986.438ZM569.994 1261.05L593.797 1045.18L587.568 1044.38C485.389 1031.18 392.705 980.182 326.598 900.777L322.581 895.949L295.077 917.99L569.994 1261.05ZM962.74 390.971C1025.84 472.801 1055.44 574.361 1046.05 676.952L1045.47 683.204L1261.32 707.004L986.408 363.958L958.904 385.998L962.74 390.971ZM386.583 323.819C302.023 391.583 248.928 488.055 237.093 595.474C225.249 702.884 256.049 808.605 323.812 893.164C391.576 977.723 488.039 1030.81 595.458 1042.64C702.868 1054.48 808.598 1023.69 893.158 955.931C977.717 888.167 1030.8 791.703 1042.66 684.286C1067.14 462.195 906.382 261.587 684.292 237.1C576.882 225.257 471.161 256.057 386.601 323.821L386.583 323.819ZM1100.7 502.173L1128.5 250.074L988.559 362.217L1100.71 502.165L1100.7 502.173ZM405.042 1059.66L292.892 919.708L152.963 1031.84L405.063 1059.64L405.042 1059.66ZM685.952 234.582L692.188 235.389C794.378 248.579 887.051 299.588 953.157 379.012L957.174 383.839L984.688 361.791L709.763 18.7245L685.96 234.592L685.952 234.582ZM293.339 915.821L320.842 893.78L317.014 888.817C253.901 806.995 224.319 705.427 233.711 602.818L234.282 596.556L18.422 572.765L293.339 915.821ZM1126.78 247.925L874.676 220.129L986.826 360.077L1126.78 247.925ZM151.241 1029.69L291.18 917.551L179.029 777.603L151.241 1029.69ZM385.965 320.868L390.938 317.031C472.77 253.91 574.339 224.327 676.948 233.718L683.21 234.289L707.021 18.4314L363.933 293.374L385.973 320.878L385.965 320.868ZM234.575 593.815L235.382 587.578C248.58 485.398 299.572 392.723 378.987 326.625L383.814 322.608L361.766 295.094L18.7172 570.005L234.577 593.796L234.575 593.815ZM362.203 291.215L502.161 179.056L250.054 151.25L362.205 291.197L362.203 291.215ZM220.115 405.081L360.044 292.945L247.893 152.998L220.107 405.071L220.115 405.081Z" fill="#BDA078"/>
</svg>
