<svg width="86" height="84" viewBox="0 0 86 84" fill="none" xmlns="http://www.w3.org/2000/svg">
<path id="Vector" d="M43.3444 0.350891C32.0009 0.350891 21.2965 4.70379 13.2549 12.5705C-3.30762 28.8808 -3.30762 55.4701 13.2549 71.7804C21.2965 79.6996 31.9476 84 43.3444 84C54.7411 84 65.3922 79.6471 73.3806 71.7804C81.3689 63.9137 85.7891 53.3724 85.7891 42.2017C85.7891 31.031 81.3689 20.4896 73.3806 12.5705C65.3922 4.65135 54.7411 0.350891 43.3444 0.350891ZM83.4459 44.4568C82.9133 53.4248 79.3985 61.8684 73.3273 68.5289V54.4213L83.4459 44.4568ZM73.3273 29.9821V15.8745C79.3985 22.535 82.9133 30.9785 83.4459 39.9466L73.3273 29.9821ZM73.3273 43.3555H81.3157L73.3273 51.2221V43.3555ZM73.3273 41.0479V33.1812L81.3157 41.0479H73.3273ZM42.1727 79.5422L34.1844 71.6755H42.1727V79.5422ZM15.7047 16.5563L26.5688 27.1501C23.0007 30.9785 20.977 35.9083 20.7107 41.1003H15.7047V16.5563ZM15.7047 43.2506L20.764 43.1457C21.0302 48.3377 23.0539 53.2675 26.6221 57.0959L15.7047 67.7422V43.2506ZM28.1132 25.5767L17.3556 14.878H42.226V19.8078C37.0069 20.0701 32.0542 22.063 28.1132 25.5767ZM16.61 12.5705C23.3735 6.5918 31.9476 3.13045 41.0544 2.60601L30.9358 12.5705H16.61ZM17.3556 69.3155L28.1132 58.5644C32.0009 62.0782 37.0069 64.0711 42.2792 64.3333V69.3155H17.3556ZM34.1844 12.5705L42.1727 4.70379V12.5705H34.1844ZM41.0011 81.5876C31.8944 81.0631 23.3202 77.6018 16.5568 71.6231H30.8825L41.0011 81.5876ZM28.8056 27.7794C36.7939 19.9127 49.8416 19.9127 57.8299 27.7794C65.8183 35.6461 65.8183 48.495 57.8299 56.3617C49.8416 64.2284 36.7939 64.2284 28.8056 56.3617C20.8172 48.495 20.8172 35.6461 28.8056 27.7794ZM70.0787 12.5705H55.7529L45.6343 2.60601C54.7411 3.13045 63.3152 6.5918 70.0787 12.5705ZM44.516 4.80868L52.5043 12.6754H44.516V4.80868ZM70.9841 43.2506V67.7422L60.0667 57.0959C63.6348 53.2675 65.6585 48.3377 65.9248 43.1457L70.9841 43.2506ZM70.9841 40.9954H65.9248C65.6585 35.8559 63.6348 30.9261 60.0667 27.0976L70.9841 16.5038V41.0479V40.9954ZM44.4627 69.368V64.3857C49.6818 64.1235 54.6346 62.1306 58.5222 58.6168L69.3331 69.368H44.4627ZM70.0787 71.6755C63.3152 77.6542 54.7411 81.1156 45.6343 81.64L55.7529 71.6755H70.0787ZM69.3331 14.9305L58.5755 25.6292C54.6878 22.1154 49.6818 20.1225 44.4095 19.8603V14.9305H69.3331ZM52.4511 71.6755L44.4627 79.5422V71.6755H52.4511ZM13.3614 54.3688V68.4764C7.29026 61.816 3.77539 53.3724 3.24283 44.4043L13.3614 54.3688ZM13.3614 43.303V51.1697L5.37306 43.303H13.3614ZM13.3614 33.1812V41.0479H5.37306L13.3614 33.1812ZM3.24283 39.8941C3.77539 30.9261 7.29026 22.4825 13.3614 15.822V29.9296L3.24283 39.8941Z" fill="white"/>
</svg>
