<svg width="353" height="53" viewBox="0 0 353 53" fill="none" xmlns="http://www.w3.org/2000/svg">
<path d="M39.7082 0C33.619 0 27.8729 2.36251 23.5562 6.63211C14.6655 15.4844 14.6655 29.9157 23.5562 38.768C27.8729 43.0661 33.5905 45.4001 39.7082 45.4001C45.826 45.4001 51.5435 43.0376 55.8316 38.768C60.1198 34.4984 62.4925 28.7771 62.4925 22.7143C62.4925 16.6514 60.1198 10.9302 55.8316 6.63211C51.5435 2.33405 45.826 0 39.7082 0ZM61.2347 23.9382C60.9488 28.8056 59.062 33.3883 55.803 37.0032V29.3464L61.2347 23.9382ZM55.803 16.0822V8.42535C59.062 12.0403 60.9488 16.623 61.2347 21.4903L55.803 16.0822ZM55.803 23.3405H60.0912L55.803 27.6101V23.3405ZM55.803 22.0881V17.8185L60.0912 22.0881H55.803ZM39.0793 42.9807L34.7911 38.7111H39.0793V42.9807ZM24.8712 8.79538L30.7031 14.5451C28.7877 16.623 27.7014 19.2986 27.5585 22.1165H24.8712V8.79538ZM24.8712 23.2836L27.5871 23.2266C27.73 26.0446 28.8163 28.7202 30.7317 30.7981L24.8712 36.5763V23.2836ZM31.5321 13.6912L25.7575 7.88453H39.1079V10.5601C36.3063 10.7025 33.6476 11.7841 31.5321 13.6912ZM25.3572 6.63211C28.9879 3.38722 33.5905 1.50859 38.4789 1.22395L33.0473 6.63211H25.3572ZM25.7575 37.4302L31.5321 31.5951C33.619 33.5021 36.3063 34.5838 39.1365 34.7261V37.4302H25.7575ZM34.7911 6.63211L39.0793 2.36251V6.63211H34.7911ZM38.4504 44.0908C33.5619 43.8061 28.9593 41.9275 25.3286 38.6826H33.0187L38.4504 44.0908ZM31.9038 14.8867C36.1919 10.6171 43.1959 10.6171 47.484 14.8867C51.7722 19.1563 51.7722 26.13 47.484 30.3996C43.1959 34.6692 36.1919 34.6692 31.9038 30.3996C27.6156 26.13 27.6156 19.1563 31.9038 14.8867ZM54.0592 6.63211H46.3691L40.9375 1.22395C45.826 1.50859 50.4286 3.38722 54.0592 6.63211ZM40.3371 2.41944L44.6253 6.68904H40.3371V2.41944ZM54.5452 23.2836V36.5763L48.6847 30.7981C50.6001 28.7202 51.6864 26.0446 51.8294 23.2266L54.5452 23.2836ZM54.5452 22.0596H51.8294C51.6864 19.2701 50.6001 16.5945 48.6847 14.5166L54.5452 8.76692V22.0881V22.0596ZM40.3086 37.4586V34.7546C43.1101 34.6122 45.7688 33.5306 47.8557 31.6235L53.659 37.4586H40.3086ZM54.0592 38.7111C50.4286 41.956 45.826 43.8346 40.9375 44.1192L46.3691 38.7111H54.0592ZM53.659 7.913L47.8843 13.7197C45.7974 11.8126 43.1101 10.7309 40.28 10.5886V7.913H53.659ZM44.5967 38.7111L40.3086 42.9807V38.7111H44.5967ZM23.6134 29.3179V36.9748C20.3544 33.3598 18.4676 28.7771 18.1817 23.9098L23.6134 29.3179ZM23.6134 23.312V27.5816L19.3252 23.312H23.6134ZM23.6134 17.8185V22.0881H19.3252L23.6134 17.8185ZM18.1817 21.4619C18.4676 16.5945 20.3544 12.0118 23.6134 8.39688V16.0537L18.1817 21.4619Z" fill="white"/>
<path d="M6.86103 44.2046C9.91991 43.8346 9.66262 43.5215 9.66262 38.9957V7.37218C9.66262 2.27712 11.6066 1.7363 14.3224 1.36627H0C2.80159 1.7363 4.65978 2.30558 4.65978 7.37218V38.7395C4.65978 43.8346 2.80159 44.3754 0 44.7454H8.46194C19.1251 44.9447 26.415 53 35.563 53C39.3652 53 43.539 51.5768 48.456 47.5918C43.396 49.812 39.3652 50.6375 35.8203 50.6375C25.786 50.6375 19.6969 44.1762 6.86103 44.1762V44.2046Z" fill="white"/>
<path d="M115.094 1.33781H88.3643C92.5953 1.70784 95.0253 2.07787 91.9664 11.6987L83.8761 37.5725L74.8996 8.16917C73.5845 3.75725 74.8996 1.70784 79.0162 1.33781H61.2633C66.066 1.8217 67.7527 2.50483 69.4108 7.71375L81.5033 45.5993H81.8178L92.338 12.2395C95.1682 3.27336 96.4261 1.85016 101.086 1.36627C103.687 1.7363 105.403 2.44791 105.403 7.31525V38.7395C105.403 43.8346 103.544 44.3754 100.743 44.7454H115.065C112.321 44.3754 110.405 43.8061 110.405 38.7395V7.37218C110.405 2.27712 112.349 1.7363 115.065 1.36627L115.094 1.33781Z" fill="white"/>
<path d="M122.326 7.22986C122.326 3.18797 126.186 1.0247 130.474 1.0247C135.763 1.0247 141.68 4.32653 141.68 11.6418L142.566 3.81418C140.079 1.65091 135.963 0.341568 131.846 0.341568C125.728 0.341568 119.696 3.2449 119.696 10.2755C119.696 22.9135 143.167 22.6289 143.167 35.8362C143.167 41.7852 138.25 45.0301 132.961 45.0301C126.615 45.0301 119.696 40.4474 119.696 30.2003L117.324 39.6788C121.069 43.5784 126.672 45.5709 131.903 45.5709C139.508 45.5709 146.483 41.4721 146.483 32.9898C146.483 18.9855 122.326 17.9893 122.326 7.25832V7.22986Z" fill="white"/>
<path d="M178.072 38.1702L166.066 0.483888H165.751L155.231 33.8437C152.315 43.1514 151.057 44.3185 145.94 44.7454H159.204C154.974 44.3754 152.544 44.0623 155.602 34.3845L156.717 30.6557H170.497L172.669 37.8571C174.041 42.2691 172.669 44.3754 168.553 44.7454H186.306C181.446 44.2615 179.759 43.5784 178.072 38.1702ZM156.889 30.1719L163.693 8.5392L170.296 30.1719H156.889Z" fill="white"/>
<path d="M317.723 1.33781H303.772C306.574 1.70784 308.432 2.19173 308.432 7.28679V26.2723C308.432 31.3673 306.574 31.9082 303.772 32.2213H317.723C314.921 31.9082 313.063 31.2819 313.063 26.2154V7.37218C313.063 2.27712 314.921 1.7363 317.723 1.36627V1.33781Z" fill="white"/>
<path d="M309.518 45.1439C305.087 45.1439 299.627 43.9769 293.023 43.9769V7.37218C293.023 2.27712 294.881 1.7363 297.683 1.36627H283.361C286.105 1.7363 287.963 2.30558 287.963 7.37218V38.7395C287.963 43.7777 286.134 44.3754 283.446 44.7454C278.672 44.2615 276.986 43.5499 275.327 38.1702L263.292 0.483888H262.978L252.457 33.8437C249.57 43.0376 248.312 44.29 243.366 44.7454C240.622 44.3754 238.821 43.7492 238.821 38.7395V7.37218C238.821 2.27712 240.679 1.7363 243.481 1.36627H235.19L224.613 37.971L212.349 1.33781H204.201C206.946 1.70784 208.861 2.27712 208.861 7.34372V35.6369C208.861 40.732 206.917 44.3754 204.201 44.7454H214.036C211.291 44.3754 209.376 40.7035 209.376 35.6369V7.17293L222.469 45.514H222.955L233.847 7.85607V38.7395C233.847 43.8346 231.903 44.3754 229.187 44.7454H256.46C252.229 44.3754 249.799 44.0623 252.858 34.3845L253.972 30.6557H267.752L269.924 37.8571C271.297 42.2691 269.924 44.3754 265.808 44.7454H292.223C299.198 44.7454 304.744 48.645 309.547 48.645C312.348 48.645 314.978 47.2787 317.408 42.8668L317.151 42.6676C315.093 44.5177 312.549 45.087 309.547 45.087L309.518 45.1439ZM254.144 30.2003L260.948 8.56767L267.552 30.2003H254.144Z" fill="white"/>
<path d="M343.137 1.33781C345.882 1.70784 347.797 5.3797 347.797 10.4463V34.5838L328.815 1.33781H320.353C323.526 2.33405 325.013 4.61117 325.013 9.70623V35.6369C325.013 40.732 323.154 44.3754 320.353 44.7454H330.187C327.443 44.3754 325.584 40.7035 325.584 35.6369V6.43287L347.768 45.5709H348.34V10.4463C348.34 5.35124 350.284 1.70784 353 1.33781H343.137Z" fill="white"/>
</svg>
