<svg width="17" height="14" viewBox="0 0 17 14" fill="none" xmlns="http://www.w3.org/2000/svg">
<path d="M16.7919 2.1027C16.1924 2.36812 15.5465 2.54688 14.8695 2.62813C15.5615 2.2151 16.0904 1.56236 16.3419 0.783688C15.6947 1.16558 14.9782 1.44319 14.2155 1.59216C13.6064 0.943486 12.7349 0.538574 11.7736 0.538574C9.61182 0.538574 8.02379 2.54688 8.51189 4.63238C5.73148 4.49289 3.26377 3.16576 1.6132 1.14933C0.736249 2.64709 1.15909 4.608 2.64923 5.60064C2.1013 5.58304 1.58601 5.43272 1.13462 5.18354C1.09791 6.72735 2.21007 8.1723 3.81986 8.49461C3.34943 8.6219 2.83278 8.6517 2.30796 8.55149C2.73352 9.87591 3.97213 10.8388 5.43508 10.8658C4.02516 11.9655 2.25358 12.4571 0.476562 12.2485C1.95854 13.1951 3.71653 13.7463 5.60639 13.7463C11.8226 13.7463 15.3331 8.51763 15.121 3.82797C15.7763 3.35941 16.3433 2.77168 16.7919 2.1027Z" fill="white"/>
</svg>
